<?xml version="1.0" encoding="UTF-8" standalone="no"?>
<svg
   xmlns="http://www.w3.org/2000/svg"
   xmlns:sodipodi="http://sodipodi.sourceforge.net/DTD/sodipodi-0.dtd"
   xmlns:inkscape="http://www.inkscape.org/namespaces/inkscape"
   width="256"
   height="256"
   viewBox="0 0 256 256"
   version="1.1"
   id="svg1">
  <defs
     id="defs1" />
  <sodipodi:namedview
     id="namedview1"
     pagecolor="#ffffff"
     bordercolor="#666666"
     borderopacity="1.0"
     inkscape:showpageshadow="0"
     inkscape:pageopacity="0.0"
     inkscape:pagecheckerboard="0"
     inkscape:deskcolor="#d1d1d1"
     showgrid="false"
     inkscape:zoom="1"
     inkscape:cx="128"
     inkscape:cy="128"
     inkscape:window-width="1024"
     inkscape:window-height="768"
     inkscape:window-x="0"
     inkscape:window-y="0"
     inkscape:window-maximized="0"
     inkscape:current-layer="svg1" />
  <metadata
     id="metadata2">
    <rdf:RDF
       xmlns:rdf="http://www.w3.org/1999/02/22-rdf-syntax-ns#"
       xmlns:dc="http://purl.org/dc/elements/1.1/"
       xmlns:cc="http://creativecommons.org/ns#"
       xmlns:rdfs="http://www.w3.org/2000/01/rdf-schema#">
      <cc:Work
         rdf:about="">
        <dc:format>image/svg+xml</dc:format>
        <dc:type
           rdf:resource="http://purl.org/dc/dcmitype/StillImage" />
        <dc:title>Open Omniscience Icon</dc:title>
        <dc:creator>Ideotion</dc:creator>
        <dc:date>2026-05-08</dc:date>
        <dc:description>Icon for Open Omniscience - Global Intelligence Platform for Investigative Journalism</dc:description>
        <cc:license
           rdf:resource="http://creativecommons.org/licenses/by-sa/4.0/" />
        <dc:source>https://github.com/ideotion/Open-Omniscience</dc:source>
      </cc:Work>
    </rdf:RDF>
  </metadata>
  <g
     id="g1"
     transform="translate(0,0)">
    <!-- Background circle -->
    <circle
       cx="128"
       cy="128"
       r="120"
       fill="#1a365d"
       id="background" />
    
    <!-- Globe -->
    <circle
       cx="128"
       cy="128"
       r="80"
       fill="#2d3748"
       id="globe-base" />
    
    <!-- Globe lines (latitude/longitude) -->
    <path
       d="M 48 128 C 48 80, 80 48, 128 48 C 176 48, 208 80, 208 128 C 208 176, 176 208, 128 208 C 80 208, 48 176, 48 128 Z"
       fill="none"
       stroke="#4a5568"
       stroke-width="2"
       id="equator" />
    
    <path
       d="M 128 48 C 160 48, 184 72, 184 104 C 184 136, 160 160, 128 160 C 96 160, 72 136, 72 104 C 72 72, 96 48, 128 48 Z"
       fill="none"
       stroke="#4a5568"
       stroke-width="2"
       id="meridian" />
    
    <path
       d="M 128 48 C 104 48, 88 64, 88 88 C 88 112, 104 128, 128 128 C 152 128, 168 112, 168 88 C 168 64, 152 48, 128 48 Z"
       fill="none"
       stroke="#4a5568"
       stroke-width="2"
       id="meridian-2" />
    
    <!-- Eye (symbolizing omniscience) -->
    <ellipse
       cx="128"
       cy="128"
       rx="40"
       ry="30"
       fill="none"
       stroke="#4299e1"
       stroke-width="4"
       id="eye-outer" />
    
    <circle
       cx="128"
       cy="128"
       r="15"
       fill="#4299e1"
       id="eye-inner" />
    
    <circle
       cx="128"
       cy="128"
       r="8"
       fill="#ffffff"
       id="eye-pupil" />
    
    <!-- Search lines (symbolizing search/intelligence) -->
    <line
       x1="128"
       y1="50"
       x2="128"
       y2="80"
       stroke="#4299e1"
       stroke-width="3"
       stroke-linecap="round"
       id="search-line-1" />
    
    <line
       x1="128"
       y1="176"
       x2="128"
       y2="206"
       stroke="#4299e1"
       stroke-width="3"
       stroke-linecap="round"
       id="search-line-2" />
    
    <line
       x1="50"
       y1="128"
       x2="80"
       y2="128"
       stroke="#4299e1"
       stroke-width="3"
       stroke-linecap="round"
       id="search-line-3" />
    
    <line
       x1="176"
       y1="128"
       x2="206"
       y2="128"
       stroke="#4299e1"
       stroke-width="3"
       stroke-linecap="round"
       id="search-line-4" />
    
    <!-- Text (optional) -->
    <text
       x="128"
       y="240"
       font-family="Arial, sans-serif"
       font-size="12"
       font-weight="bold"
       fill="#4a5568"
       text-anchor="middle"
       id="text">Open Omniscience</text>
  </g>
</svg>
